# xmcd
#
# Track frame offsets:
#	150
#	23013
#	46337
#	64054
#	85229
#	105505
#	131556
#	150485
#	168489
#	186580
#	203137
#	227112
#	238697
#	261240
#	277045
#	294649
#
# Disc length: 4143
#
# Revision: 2
# Processed by: cddbd v1.5.1PL0 Copyright (c) Steve Scherf et al.
# Submitted via: audiograbber 1.82.02
# Normalized: r1:DSETVAR1
#
DISCID=e5102d10
DTITLE=Various Artist - Timeless Cd2
DYEAR=1900
DGENRE=
TTITLE0=Aretha Franklin - Jumpin' Jack flash
TTITLE1=Cake - I will survive
TTITLE2=Horace Andy - Horse with no name
TTITLE3=Buddy Guy - Mustang sally
TTITLE4=Joe Cocker - I heard it through the grapevine
TTITLE5=Chaka Kahn - I feel for you
TTITLE6=Candy Dulfer - Pick up the pieces
TTITLE7=Fine Young Cannibals - Suspicious minds
TTITLE8=Earth Wind and Fire - Got to get you into my life
TTITLE9=Michael Bolton - As
TTITLE10=Etta James - If you want me to stay
TTITLE11=Angie Stone - Trouble man
TTITLE12=Patti Smith - When doves cry
TTITLE13=TLC - Waterfalls
TTITLE14=Jonathan Butler f. Ruby Turner - If you're ready
TTITLE15=Marianne Faithful - Mack the knife
EXTD=
EXTT0=
EXTT1=
EXTT2=
EXTT3=
EXTT4=
EXTT5=
EXTT6=
EXTT7=
EXTT8=
EXTT9=
EXTT10=
EXTT11=
EXTT12=
EXTT13=
EXTT14=
EXTT15=
PLAYORDER=
